<svg display="none" xmlns="http://www.w3.org/2000/svg">
    <symbol width="81" height="24" viewBox="0 0 81 24" id="logo-green-icon">
        <path d="M10.15 1.76007H14.02L23.26 23.0001H17.98L16.15 18.5001H7.89997L6.12997 23.0001H0.969971L10.15 1.76007ZM11.95 7.94007L9.36997 14.5401H14.56L11.95 7.94007Z" fill="#01996D"/>
        <path d="M24.8863 0.320068H29.3863V23.0001H24.8863V0.320068Z" fill="#01996D"/>
        <path d="M32.6793 8.42007H37.1793V23.0001H32.6793V8.42007ZM32.3193 3.83007C32.3193 3.11007 32.5693 2.50007 33.0693 2.00007C33.5893 1.48007 34.2093 1.22007 34.9293 1.22007C35.6493 1.22007 36.2593 1.48007 36.7593 2.00007C37.2793 2.50007 37.5393 3.11007 37.5393 3.83007C37.5393 4.55007 37.2793 5.17007 36.7593 5.69007C36.2593 6.19007 35.6493 6.44007 34.9293 6.44007C34.2093 6.44007 33.5893 6.19007 33.0693 5.69007C32.5693 5.17007 32.3193 4.55007 32.3193 3.83007Z" fill="#01996D"/>
        <path d="M38.8822 8.42007H43.7422L47.4322 18.3201H47.4922L50.9122 8.42007H55.4422L49.6822 23.0001H44.9122L38.8822 8.42007Z" fill="#01996D"/>
        <path d="M57.1422 8.42007H61.6422V23.0001H57.1422V8.42007ZM56.7822 3.83007C56.7822 3.11007 57.0322 2.50007 57.5322 2.00007C58.0522 1.48007 58.6722 1.22007 59.3922 1.22007C60.1122 1.22007 60.7222 1.48007 61.2222 2.00007C61.7422 2.50007 62.0022 3.11007 62.0022 3.83007C62.0022 4.55007 61.7422 5.17007 61.2222 5.69007C60.7222 6.19007 60.1122 6.44007 59.3922 6.44007C58.6722 6.44007 58.0522 6.19007 57.5322 5.69007C57.0322 5.17007 56.7822 4.55007 56.7822 3.83007Z" fill="#01996D"/>
        <path d="M64.3351 15.7101C64.3351 14.5501 64.5451 13.5001 64.9651 12.5601C65.3851 11.6201 65.9551 10.8201 66.6751 10.1601C67.4151 9.48007 68.2751 8.96007 69.2551 8.60007C70.2551 8.24007 71.3151 8.06007 72.4351 8.06007C73.5551 8.06007 74.6051 8.24007 75.5851 8.60007C76.5851 8.96007 77.4451 9.48007 78.1651 10.1601C78.9051 10.8201 79.4851 11.6201 79.9051 12.5601C80.3251 13.5001 80.5351 14.5501 80.5351 15.7101C80.5351 16.8701 80.3251 17.9201 79.9051 18.8601C79.4851 19.8001 78.9051 20.6101 78.1651 21.2901C77.4451 21.9501 76.5851 22.4601 75.5851 22.8201C74.6051 23.1801 73.5551 23.3601 72.4351 23.3601C71.3151 23.3601 70.2551 23.1801 69.2551 22.8201C68.2751 22.4601 67.4151 21.9501 66.6751 21.2901C65.9551 20.6101 65.3851 19.8001 64.9651 18.8601C64.5451 17.9201 64.3351 16.8701 64.3351 15.7101ZM68.8351 15.7101C68.8351 16.8101 69.1451 17.7001 69.7651 18.3801C70.4051 19.0601 71.2951 19.4001 72.4351 19.4001C73.5751 19.4001 74.4551 19.0601 75.0751 18.3801C75.7151 17.7001 76.0351 16.8101 76.0351 15.7101C76.0351 14.6101 75.7151 13.7201 75.0751 13.0401C74.4551 12.3601 73.5751 12.0201 72.4351 12.0201C71.2951 12.0201 70.4051 12.3601 69.7651 13.0401C69.1451 13.7201 68.8351 14.6101 68.8351 15.7101Z" fill="#01996D"/>
    </symbol>

    <symbol width="72" height="73" viewBox="0 0 72 73" id="play-icon">
        <path d="M35.5913 0.40329C16.0068 0.40329 0.0756836 16.5572 0.0756836 36.4122C0.0756836 56.2672 16.0068 72.4211 35.5913 72.4211C55.1758 72.4211 71.107 56.2672 71.107 36.4122C71.107 16.5572 55.1758 0.40329 35.5913 0.40329ZM35.5913 69.4204C17.6398 69.4204 3.03527 54.613 3.03527 36.4122C3.03527 18.2114 17.6398 3.40399 35.5913 3.40399C53.5428 3.40399 68.1474 18.2114 68.1474 36.4122C68.1474 54.613 53.5428 69.4204 35.5913 69.4204Z" fill="white"/>
        <path d="M49.7107 35.1506L28.9933 21.6473C28.5395 21.347 27.9528 21.3308 27.4846 21.5916C27.0076 21.8553 26.7128 22.3595 26.7128 22.9089V49.9156C26.7128 50.465 27.0076 50.9691 27.4846 51.2328C27.7042 51.3545 27.9499 51.416 28.1927 51.416C28.4701 51.416 28.7505 51.3368 28.9933 51.1771L49.7107 37.6738C50.1327 37.3984 50.3899 36.9221 50.3899 36.4122C50.3899 35.9023 50.1327 35.4262 49.7107 35.1506ZM29.6724 47.1668V25.6576L46.173 36.4122L29.6724 47.1668Z" fill="white"/>
    </symbol>

    <symbol width="104" height="31" viewBox="0 0 104 31" id="logo-white-icon">
        <path d="M19.36 18.98L16.22 10.1C16.0333 9.63333 15.8333 9.08667 15.62 8.46C15.42 7.83333 15.2267 7.15333 15.04 6.42C14.8533 7.16667 14.6533 7.86 14.44 8.5C14.24 9.12667 14.0467 9.67333 13.86 10.14L10.74 18.98H19.36ZM29.44 30H24.78C24.26 30 23.8333 29.88 23.5 29.64C23.18 29.3867 22.94 29.0667 22.78 28.68L20.82 23.14H9.26L7.3 28.68C7.16667 29.0133 6.93333 29.32 6.6 29.6C6.26667 29.8667 5.84667 30 5.34 30H0.64L11.98 0.979998H18.12L29.44 30ZM36.8869 0.179999V30H31.3669V0.179999H36.8869ZM47.1631 9.38V30H41.6431V9.38H47.1631ZM47.8231 3.52C47.8231 3.98667 47.7298 4.42 47.5431 4.82C47.3565 5.22 47.1031 5.57333 46.7831 5.88C46.4765 6.18666 46.1098 6.42666 45.6831 6.6C45.2698 6.77333 44.8231 6.86 44.3431 6.86C43.8898 6.86 43.4565 6.77333 43.0431 6.6C42.6431 6.42666 42.2898 6.18666 41.9831 5.88C41.6765 5.57333 41.4298 5.22 41.2431 4.82C41.0698 4.42 40.9831 3.98667 40.9831 3.52C40.9831 3.05333 41.0698 2.62 41.2431 2.22C41.4298 1.80667 41.6765 1.44667 41.9831 1.14C42.2898 0.833332 42.6431 0.593332 43.0431 0.419998C43.4565 0.246665 43.8898 0.159998 44.3431 0.159998C44.8231 0.159998 45.2698 0.246665 45.6831 0.419998C46.1098 0.593332 46.4765 0.833332 46.7831 1.14C47.1031 1.44667 47.3565 1.80667 47.5431 2.22C47.7298 2.62 47.8231 3.05333 47.8231 3.52ZM70.8538 9.38L62.7538 30H57.7538L49.6538 9.38H54.2338C54.6338 9.38 54.9671 9.47333 55.2338 9.66C55.5004 9.84667 55.6871 10.0867 55.7938 10.38L59.2538 20.58C59.4804 21.2733 59.6804 21.9533 59.8538 22.62C60.0271 23.2733 60.1804 23.9333 60.3138 24.6C60.4604 23.9333 60.6204 23.2733 60.7938 22.62C60.9804 21.9533 61.1938 21.2733 61.4338 20.58L65.0138 10.38C65.1071 10.0867 65.2871 9.84667 65.5538 9.66C65.8204 9.47333 66.1338 9.38 66.4938 9.38H70.8538ZM78.8819 9.38V30H73.3619V9.38H78.8819ZM79.5419 3.52C79.5419 3.98667 79.4485 4.42 79.2619 4.82C79.0752 5.22 78.8219 5.57333 78.5019 5.88C78.1952 6.18666 77.8285 6.42666 77.4019 6.6C76.9885 6.77333 76.5419 6.86 76.0619 6.86C75.6085 6.86 75.1752 6.77333 74.7619 6.6C74.3619 6.42666 74.0085 6.18666 73.7019 5.88C73.3952 5.57333 73.1485 5.22 72.9619 4.82C72.7885 4.42 72.7019 3.98667 72.7019 3.52C72.7019 3.05333 72.7885 2.62 72.9619 2.22C73.1485 1.80667 73.3952 1.44667 73.7019 1.14C74.0085 0.833332 74.3619 0.593332 74.7619 0.419998C75.1752 0.246665 75.6085 0.159998 76.0619 0.159998C76.5419 0.159998 76.9885 0.246665 77.4019 0.419998C77.8285 0.593332 78.1952 0.833332 78.5019 1.14C78.8219 1.44667 79.0752 1.80667 79.2619 2.22C79.4485 2.62 79.5419 3.05333 79.5419 3.52ZM92.8925 9.06C94.4392 9.06 95.8458 9.30667 97.1125 9.8C98.3792 10.2933 99.4658 11 100.373 11.92C101.279 12.8267 101.979 13.9333 102.473 15.24C102.966 16.5467 103.213 18.02 103.213 19.66C103.213 21.3 102.966 22.78 102.473 24.1C101.979 25.4067 101.279 26.52 100.373 27.44C99.4658 28.36 98.3792 29.0667 97.1125 29.56C95.8458 30.0533 94.4392 30.3 92.8925 30.3C91.3325 30.3 89.9125 30.0533 88.6325 29.56C87.3658 29.0667 86.2792 28.36 85.3725 27.44C84.4658 26.52 83.7592 25.4067 83.2525 24.1C82.7592 22.78 82.5125 21.3 82.5125 19.66C82.5125 18.02 82.7592 16.5467 83.2525 15.24C83.7592 13.9333 84.4658 12.8267 85.3725 11.92C86.2792 11 87.3658 10.2933 88.6325 9.8C89.9125 9.30667 91.3325 9.06 92.8925 9.06ZM92.8925 26.16C94.4658 26.16 95.6325 25.62 96.3925 24.54C97.1525 23.4467 97.5325 21.8267 97.5325 19.68C97.5325 17.5467 97.1525 15.94 96.3925 14.86C95.6325 13.7667 94.4658 13.22 92.8925 13.22C91.2792 13.22 90.0925 13.7667 89.3325 14.86C88.5725 15.94 88.1925 17.5467 88.1925 19.68C88.1925 21.8267 88.5725 23.4467 89.3325 24.54C90.0925 25.62 91.2792 26.16 92.8925 26.16Z" fill="white"/>
    </symbol>
</svg>